<svg xmlns="http://www.w3.org/2000/svg" width="820" height="298.271" viewBox="0 0 820 298.271">
  <g id="Grupo_6503" data-name="Grupo 6503" transform="translate(7743 2216.135)">
    <rect id="Rect치ngulo_1282" data-name="Rect치ngulo 1282" width="820" height="296" transform="translate(-7743 -2215)" fill="rgba(255,255,255,0)"/>
    <g id="_ocioLogo" data-name="+ocioLogo" transform="translate(-7481.428 -2215.428)">
      <g id="Capa_1" data-name="Capa 1" transform="translate(0 0)">
        <path id="Trazado_3982" data-name="Trazado 3982" d="M23.744,0H182.526A23.744,23.744,0,0,1,206.27,23.744V182.526a23.744,23.744,0,0,1-23.744,23.744H23.744A23.744,23.744,0,0,1,0,182.526V23.744A23.744,23.744,0,0,1,23.744,0Z" transform="translate(2.573 148.428) rotate(-45)" fill="#ffc700" stroke="#1d1d1b" stroke-width="1"/>
        <path id="Rect치ngulo_1121_-_Contorno" data-name="Rect치ngulo 1121 - Contorno" d="M21.686,0H188.222a21.71,21.71,0,0,1,21.686,21.686V188.222a21.71,21.71,0,0,1-21.686,21.686H21.686A21.71,21.71,0,0,1,0,188.222V21.686A21.71,21.71,0,0,1,21.686,0ZM188.222,206.27a18.068,18.068,0,0,0,18.047-18.047V21.686A18.068,18.068,0,0,0,188.222,3.639H21.686A18.068,18.068,0,0,0,3.639,21.686V188.222A18.068,18.068,0,0,0,21.686,206.27Z" transform="translate(0 148.428) rotate(-45)" fill="#1d1d1b" stroke="#1d1d1b" stroke-width="1"/>
        <path id="Trazado_3975" data-name="Trazado 3975" d="M77.633,66.331,59.986,48.5,77.56,30.819a6.95,6.95,0,0,0,0-9.788,6.841,6.841,0,0,0-9.751,0L50.2,38.678,32.588,20.958A6.95,6.95,0,0,0,22.8,30.783L40.447,48.5,22.764,66.331a6.986,6.986,0,0,0,0,9.824,6.913,6.913,0,0,0,9.751,0L50.2,58.4,67.845,76.082a6.913,6.913,0,0,0,9.788-9.751Z" transform="translate(63.736 59.065)" fill="#fff" stroke="#1d1d1b" stroke-miterlimit="10" stroke-width="1"/>
        <path id="Trazado_3975_-_Contorno" data-name="Trazado 3975 - Contorno" d="M28.949,81.306a8.677,8.677,0,0,1-6.159-2.542,8.839,8.839,0,0,1-.011-12.393L39.192,49.824,22.742,33.3a8.769,8.769,0,0,1,12.35-12.4l.1.09L51.51,37.419l16.32-16.354A8.727,8.727,0,0,1,80.161,33.419l-16.3,16.4L80.28,66.417A8.733,8.733,0,0,1,73.86,81.07h0a8.706,8.706,0,0,1-5.943-2.335l-.049-.048L51.509,62.3l-16.4,16.463A8.683,8.683,0,0,1,28.949,81.306ZM25.443,30.862,44.321,49.819,25.365,68.932a5.184,5.184,0,0,0,0,7.264,5.094,5.094,0,0,0,7.175-.011L51.506,57.142l18.91,18.949a5.077,5.077,0,0,0,3.443,1.34h0a5.094,5.094,0,0,0,3.765-8.525L58.733,49.819,77.579,30.856a5.145,5.145,0,0,0,0-7.224,5.021,5.021,0,0,0-7.163-.005L51.505,42.576,32.657,23.61a5.13,5.13,0,0,0-7.214,7.252Z" transform="translate(62.427 57.746)" fill="#1d1d1b" stroke="#1d1d1b" stroke-width="1"/>
        <path id="Trazado_3976" data-name="Trazado 3976" d="M62.786,96.4a17.174,17.174,0,0,1-9.86,0,21.322,21.322,0,0,1-9.169-5.676L32.841,79.8a22.122,22.122,0,0,1-5.676-9.169,17.283,17.283,0,0,1,0-9.9A22.959,22.959,0,0,1,41.719,46.185a17.283,17.283,0,0,1,9.9,0,21.832,21.832,0,0,1,9.169,5.676L71.7,62.776a21.831,21.831,0,0,1,5.676,9.169,17.283,17.283,0,0,1,0,9.9,21.14,21.14,0,0,1-5.6,9.1A21.613,21.613,0,0,1,62.786,96.4Zm4.475-17.1a8.114,8.114,0,0,0,0-4.657,10.916,10.916,0,0,0-2.729-4.33L53.217,59.065a10.916,10.916,0,0,0-4.33-2.729,8.114,8.114,0,0,0-4.657,0,9.861,9.861,0,0,0-4.257,2.62,9.06,9.06,0,0,0-2.583,4.257,7.714,7.714,0,0,0,0,4.621,10.152,10.152,0,0,0,2.729,4.33L51.361,83.407a10.152,10.152,0,0,0,4.33,2.729,8.114,8.114,0,0,0,4.657,0,9.86,9.86,0,0,0,4.512-2.583,10.115,10.115,0,0,0,2.4-4.257Z" transform="translate(78.765 128.914)" fill="#1d1d1b" stroke="#707070" stroke-width="1"/>
        <path id="Trazado_3977" data-name="Trazado 3977" d="M71.7,87.352a15.864,15.864,0,0,1-9.642,0,23.287,23.287,0,0,1-9.351-6.113L42.157,70.506a23.942,23.942,0,0,1-6.113-9.387,15.864,15.864,0,0,1,0-9.642,21.831,21.831,0,0,1,5.785-9.169,19.029,19.029,0,0,1,8-4.912,18.447,18.447,0,0,1,9.242-.182A27.216,27.216,0,0,1,68.827,41.8l-7.5,7.5a13.462,13.462,0,0,0-4.548-1.928,8.7,8.7,0,0,0-4.221,0,7.823,7.823,0,0,0-3.639,2.11,8.914,8.914,0,0,0-2.62,4.293,7.277,7.277,0,0,0,.255,4.585,12.335,12.335,0,0,0,3.093,4.876L60.2,73.744a12.189,12.189,0,0,0,4.548,3.093,8.041,8.041,0,0,0,4.621.255,9.351,9.351,0,0,0,4.257-2.947,8,8,0,0,0,2.147-3.639,8.114,8.114,0,0,0,0-4.184,13.718,13.718,0,0,0-2-4.548l7.75-7.241a28.162,28.162,0,0,1,4.548,9.788,17.9,17.9,0,0,1,0,9.206,18.811,18.811,0,0,1-5.2,7.9A21.831,21.831,0,0,1,71.7,87.352Z" transform="translate(102.123 105.83)" fill="#1d1d1b" stroke="#707070" stroke-width="1"/>
        <path id="Trazado_3978" data-name="Trazado 3978" d="M87.946,69.74l-7.5,7.532L42.1,38.885l7.5-7.5Z" transform="translate(120.082 91.787)" fill="#1d1d1b" stroke="#707070" stroke-width="1"/>
        <path id="Trazado_3979" data-name="Trazado 3979" d="M83.964,75.05a17.174,17.174,0,0,1-9.86,0,21.832,21.832,0,0,1-9.169-5.676L54.018,58.458a21.831,21.831,0,0,1-5.494-9.169,17.174,17.174,0,0,1,0-9.86A23.1,23.1,0,0,1,63.078,24.874a17.174,17.174,0,0,1,9.86,0,21.831,21.831,0,0,1,9.169,5.676L93.024,41.466A21.831,21.831,0,0,1,98.7,50.635a17.174,17.174,0,0,1,0,9.86A22.668,22.668,0,0,1,84.146,75.05Zm4.585-17.065a8.114,8.114,0,0,0,0-4.657,10.37,10.37,0,0,0-2.911-4.257L74.394,37.827a10.37,10.37,0,0,0-4.33-2.729,8.114,8.114,0,0,0-4.657,0,10.115,10.115,0,0,0-4.257,2.583,9.751,9.751,0,0,0-2.583,4.112,8.114,8.114,0,0,0,0,4.657,10.37,10.37,0,0,0,2.729,4.33L72.539,62.024a10.37,10.37,0,0,0,4.33,2.729,8.114,8.114,0,0,0,4.657,0,10.479,10.479,0,0,0,7.022-6.768Z" transform="translate(135.125 72.687)" fill="#1d1d1b" stroke="#707070" stroke-width="1"/>
        <path id="Trazado_3980" data-name="Trazado 3980" d="M5.494,0a5.494,5.494,0,0,1,5.494,5.494V124.438a5.494,5.494,0,0,1-10.988,0V5.494A5.494,5.494,0,0,1,5.494,0Z" transform="translate(250.016 139.31) rotate(45)" fill="#1d1d1b" stroke="#707070" stroke-width="1"/>
        <path id="Trazado_3981" data-name="Trazado 3981" d="M5.494,0A5.494,5.494,0,1,1,0,5.494,5.494,5.494,0,0,1,5.494,0Z" transform="translate(153.95 235.424) rotate(45)" fill="#1d1d1b" stroke="#707070" stroke-width="1"/>
      </g>
    </g>
  </g>
</svg>
