<svg xmlns="http://www.w3.org/2000/svg" viewBox="0 0 582.71 581.23">
  <defs>
    <style>
      .cls-1 {
        fill: #1d1d1b;
      }
    </style>
  </defs>
  <g id="Layer_2" data-name="Layer 2">
    <g id="Layer_1-2" data-name="Layer 1">
      <g>
        <path class="cls-1" d="M221.51,311.89a28.26,28.26,0,0,1,3.69-26.65c7.85-10.7,19-27.13,26.07-43.08,7.36-16.55,3.37-39.16,4.43-49.57,1.38-13.47,5.25-25.91,9.68-31.81,23.74-31.62,8.77-80.62-2.09-109.59-1.28-3.4,10.38-12,25.27-10.64,12.73,1.18,21.58,9.55,27.23,15.38,15.93,16.44,19.26,36.44,19.87,40.47,3.61,24-7,32.18-5.28,58.35l0,.47A28.25,28.25,0,0,0,369,179.41c3-1.18,6.13-2.27,9.36-3.5,20.51-7.79,44-16.49,55.34-20.74,15.33-5.74,36.3.58,44.57,18.36,4.84,10.4,3.55,17-1.24,25.39-3.06,5.37,2.68,5.26,8.12,8.2a47.45,47.45,0,0,1,11.29,8.35c3,3,5.38,7.09,7.82,13.6,4.8,12.81-1.5,26.67-4.74,33.72-2.11,4.58,2.37,7.46,6.38,10.52,4.57,3.49,7.66,4.23,11.52,15,3.27,9.15,1.89,19.23-3,27.77A28.9,28.9,0,0,0,512.3,341c8,20.45-3.12,42.38-26.8,51.26-50.94,19.09-135.77,50.93-178.67,66.91a28.26,28.26,0,0,1-36.32-16.56Z"/>
        <g>
          <path class="cls-1" d="M227.63,540.45q.56-6,6.7-8.38l1.37,3.51a9.62,9.62,0,0,0-5.33,4.62q-1.6,3.16.24,7.87l6,15.23L233,564.72l-10.74-27.4,3.62-1.41Z"/>
          <path class="cls-1" d="M272.23,545.31a15.79,15.79,0,0,1-20.44,8,15.63,15.63,0,0,1-8-20.43,15.79,15.79,0,0,1,20.44-8,15.63,15.63,0,0,1,8,20.43Zm-18.88,4.5a11.6,11.6,0,0,0,15.45-14.94,11.3,11.3,0,0,0-6.14-6.47,11.7,11.7,0,0,0-15.34,6,11.87,11.87,0,0,0,6,15.4Z"/>
          <path class="cls-1" d="M298.71,507.34l3.62-1.42,10.31,26.3a12.35,12.35,0,0,1-.41,10.9,15.63,15.63,0,0,1-8.36,7.2q-9.64,3.78-15.61-1.59l2.47-3.05q4.42,4,11.76,1.13a11.35,11.35,0,0,0,6.45-5.4,9.3,9.3,0,0,0,.08-7.77l-1.67-4.28a13.18,13.18,0,0,1-8.71,10.37,14.61,14.61,0,0,1-11.63-.24,15.71,15.71,0,0,1-8-20.39,14.59,14.59,0,0,1,8.37-8.08,13.19,13.19,0,0,1,13.43,1.69ZM288.63,536A11.7,11.7,0,0,0,304,530,11.65,11.65,0,0,0,289,514.42a11.15,11.15,0,0,0-6.43,6.16,11.85,11.85,0,0,0,6,15.39Z"/>
          <path class="cls-1" d="M317.48,505.23q.56-6,6.7-8.38l1.37,3.51a9.62,9.62,0,0,0-5.33,4.62c-1.07,2.1-1,4.73.24,7.87l6,15.23-3.61,1.41L312.08,502.1l3.61-1.42Z"/>
          <path class="cls-1" d="M353.28,486l3.61-1.42,10.74,27.39L364,513.34,361.91,508a13.18,13.18,0,0,1-8.7,10.37,14.57,14.57,0,0,1-11.63-.25,15.68,15.68,0,0,1-8-20.38,14.58,14.58,0,0,1,8.36-8.08,13.18,13.18,0,0,1,13.43,1.69ZM343.2,514.58a11.7,11.7,0,0,0,15.34-6,11.86,11.86,0,0,0-6-15.4,11.6,11.6,0,0,0-15.45,14.94A11.3,11.3,0,0,0,343.2,514.58Z"/>
          <path class="cls-1" d="M395.59,468.6a10.53,10.53,0,0,1,8.58,0,12,12,0,0,1,6,6.89l6.7,17.1-3.62,1.42-6.7-17.1a8.31,8.31,0,0,0-4-4.79,6.84,6.84,0,0,0-5.61,0,7.7,7.7,0,0,0-4.62,4.43q-1.21,3.1.67,7.92l6,15.18-3.61,1.42L388.6,484a8.62,8.62,0,0,0-3.9-4.85,6.38,6.38,0,0,0-5.43-.08,8.13,8.13,0,0,0-4.69,4.49c-.93,2.13-.78,4.79.47,8L381,506.68l-3.62,1.42-10.74-27.39,3.62-1.42,1.57,4a10.07,10.07,0,0,1,6.55-7.94q5.92-2.33,10.29,1.72A10.38,10.38,0,0,1,395.59,468.6Z"/>
          <path class="cls-1" d="M444.13,449.57a10.53,10.53,0,0,1,8.58.05,11.94,11.94,0,0,1,6,6.89l6.7,17.1L461.75,475l-6.7-17.1a8.31,8.31,0,0,0-4-4.79,6.84,6.84,0,0,0-5.61,0,7.7,7.7,0,0,0-4.62,4.43q-1.21,3.11.67,7.92l5.95,15.18-3.61,1.42L437.14,465a8.65,8.65,0,0,0-3.9-4.86,6.38,6.38,0,0,0-5.43-.08,8.13,8.13,0,0,0-4.69,4.49c-.93,2.13-.78,4.79.47,8l6,15.17-3.62,1.42-10.74-27.39,3.62-1.42,1.57,4a10.07,10.07,0,0,1,6.55-7.94c3.95-1.55,7.37-1,10.29,1.72A10.36,10.36,0,0,1,444.13,449.57Z"/>
          <path class="cls-1" d="M464.82,434.64a2.69,2.69,0,0,1-1.56,1.49,2.83,2.83,0,1,1-2.07-5.26,2.77,2.77,0,0,1,2.17,0,2.69,2.69,0,0,1,1.49,1.56A2.73,2.73,0,0,1,464.82,434.64Zm9.64,35.4-10.74-27.39,3.62-1.42,10.74,27.4Z"/>
          <path class="cls-1" d="M489.65,431.73a11.08,11.08,0,0,1,9.06-.05,12.26,12.26,0,0,1,6.08,7.07l6.6,16.82L507.77,457l-6.59-16.82a8.47,8.47,0,0,0-4.18-4.93,7.82,7.82,0,0,0-6.3.13,9.24,9.24,0,0,0-5.43,5q-1.49,3.45.55,8.66l5.63,14.35-3.62,1.42-10.74-27.39,3.62-1.42,1.67,4.27A10.88,10.88,0,0,1,489.65,431.73Z"/>
          <path class="cls-1" d="M533.3,415.37l3.62-1.42,10.31,26.3a12.35,12.35,0,0,1-.41,10.9,15.63,15.63,0,0,1-8.36,7.2q-9.65,3.78-15.61-1.59l2.47-3.05q4.42,4,11.76,1.14a11.4,11.4,0,0,0,6.45-5.41,9.3,9.3,0,0,0,.08-7.77l-1.67-4.27a13.18,13.18,0,0,1-8.71,10.36,14.61,14.61,0,0,1-11.63-.24,15.71,15.71,0,0,1-8-20.38,14.61,14.61,0,0,1,8.37-8.09,13.19,13.19,0,0,1,13.43,1.69ZM523.23,444a11.71,11.71,0,0,0,15.34-6,11.87,11.87,0,0,0-6-15.39,11.71,11.71,0,0,0-15.34,6,11.87,11.87,0,0,0,6,15.39Z"/>
        </g>
        <path class="cls-1" d="M267.84,457.67,213.72,313.3a15.22,15.22,0,0,0-19.59-8.91l-70.34,26.37a15.21,15.21,0,0,0-8.91,19.58L169,494.72a15.22,15.22,0,0,0,19.59,8.91l70.34-26.37A15.22,15.22,0,0,0,267.84,457.67Zm-46.33,23.58a7.34,7.34,0,1,1,4.3-9.45A7.34,7.34,0,0,1,221.51,481.25Zm22.1-31-61.13,22.91a12.53,12.53,0,0,1-16.13-7.33L123.79,352.26a12.53,12.53,0,0,1,7.33-16.13l61.13-22.91a12.54,12.54,0,0,1,16.14,7.33l42.55,113.54A12.53,12.53,0,0,1,243.61,450.22Z"/>
        <g>
          <g>
            <path class="cls-1" d="M186.81,419.5l-.58.35-.58.35,2.5-23.94,2.49-23.94.69-.47.7-.48-2.6,24.06-2.61,24.05h0Z"/>
            <polygon class="cls-1" points="194.77 366.74 189 420.03 188.93 420.9 188.79 422.32 186.85 423.05 182.89 424.51 188.67 369.02 194.77 366.74"/>
          </g>
          <polygon class="cls-1" points="177.27 413.63 175.4 417.75 155.94 408.93 164.81 389.39 168.92 391.25 161.93 406.68 177.27 413.63"/>
          <polygon class="cls-1" points="221.49 384.47 212.57 403.88 208.46 401.99 215.49 386.69 200.1 379.62 201.99 375.51 221.49 384.47"/>
        </g>
        <rect class="cls-1" x="193.29" y="527.01" width="3.33" height="51.27" transform="translate(-188.26 109.28) rotate(-21.41)"/>
        <rect class="cls-1" x="205.54" y="531.64" width="3.96" height="18.51" transform="translate(159.36 1118.22) rotate(-154.24)"/>
        <rect class="cls-1" x="201.63" y="521.11" width="3.96" height="19.64" transform="translate(-363.02 483.22) rotate(-64.21)"/>
        <g>
          <path class="cls-1" d="M38.47,198.9h-2.8l30-70.4,3.35-.1L38.5,198.88Z"/>
          <polyline class="cls-1" points="31.81 203.34 64.98 125.66 72.98 125.67 39.76 203.38"/>
        </g>
        <g>
          <path class="cls-1" d="M106.69,146.34q10.19-.09,16.12,6t6,16.55l.27,34.07-7.39.06L121.42,169q-.06-7.44-4.06-11.52t-11.29-4Q98,153.5,93,158.59t-4.92,15.64l.23,29.08-7.39.05-.6-77.69,7.39-.06L88,156.47Q94.15,146.44,106.69,146.34Z"/>
          <path class="cls-1" d="M164.48,145.89q12.42-.1,20.17,8.55A30.15,30.15,0,0,1,192.48,175c0,.82-.06,2-.2,3.45l-49.16.38a19.8,19.8,0,0,0,7.32,13.31,23.18,23.18,0,0,0,15.1,4.83,22.23,22.23,0,0,0,11-2.7,17.6,17.6,0,0,0,6.94-6.88l6.53,3.73a26.5,26.5,0,0,1-10,9.4A30.25,30.25,0,0,1,165.49,204q-13.22.11-21.57-8t-8.45-20.8q-.09-12.42,8-20.82T164.48,145.89Zm.05,7.1A21.37,21.37,0,0,0,150,158.26a20.91,20.91,0,0,0-6.9,13.43l41.78-.32q-1.2-8.76-6.94-13.6A19.86,19.86,0,0,0,164.53,153Z"/>
        </g>
        <rect class="cls-1" x="29.75" y="111.59" width="100.92" height="7.36"/>
        <g>
          <path class="cls-1" d="M542.52,378.62l30.39-11.83c34.18-128.32-23.18-264.48-138.65-329.5C318.18-28.07,171.15-5.88,79.31,91l36.77,0A262,262,0,0,1,196,42.49C309.15-.63,411.35,53.06,419,57.23c4.74,2.59,119.73,68,136.51,201.28C562.08,310.78,551.09,353.77,542.52,378.62Z"/>
          <path class="cls-1" d="M166.54,525.2l-30.47,11.86c-22.21-13.85-77.44-52.44-110.81-126.47-38-84.32-23.4-160.81-17.69-185.19H33.86c-5.31,21.81-20,94.09,16.07,174.15C85.09,477.57,146.55,514.31,166.54,525.2Z"/>
          <path class="cls-1" d="M511.5,481.76c-12.23,12.42-46.72,59.65-113.27,83-55.33,19.43-105.62,17-139.13,15.41l66.54-25.91a266.94,266.94,0,0,0,62.61-16,272.79,272.79,0,0,0,56.66-30.55C484.66,492.35,511.5,481.76,511.5,481.76Z"/>
        </g>
      </g>
    </g>
  </g>
</svg>
