<svg id="Layer_2" data-name="Layer 2" xmlns="http://www.w3.org/2000/svg" width="357.795" height="167.119" viewBox="0 0 357.795 167.119">
  <g id="Capa_1" data-name="Capa 1">
    <path id="Trazado_4221" data-name="Trazado 4221" d="M0,68.823C0,53.48,18.431,27.631,31.7,20.858A44.832,44.832,0,0,1,51.513,16.25a38.151,38.151,0,0,1,37.967,39.4c0,17.878-12.164,33.083-26.079,43.035A42.114,42.114,0,0,1,42.436,107.9c-1.659,0-3.317.276-4.976.276C17.279,108.172,0,88.5,0,68.823Zm65.7,20A24.881,24.881,0,0,0,75.934,66.058C75.934,48.549,65.06,29.2,45.615,29.2,29.4,29.2,11.381,41.085,11.381,58.732A39.948,39.948,0,0,0,26.955,89.7a27.646,27.646,0,0,0,18.661,5.99A33.037,33.037,0,0,0,65.7,88.82Z" transform="translate(0 58.624)" fill="#fff"/>
    <path id="Trazado_4222" data-name="Trazado 4222" d="M95.9,20.938c0,.645-1.935,5.9-2.212,6.911l-2.3,9.215a1.926,1.926,0,0,1-1.751,2.027c-1.152,0-1.659-2.166-1.8-3.317-.922-5.483-15.988-5.483-20.6-5.483a50.315,50.315,0,0,0-17.233,2.027C39.365,36.927,34.02,49.828,34.02,60.7c0,22.117,17.878,29.9,37.46,29.9A54.094,54.094,0,0,0,93.6,86.643l.737-.276c.415,0,.507,0,.507.553a27.277,27.277,0,0,1-2.811,5.852,35.939,35.939,0,0,1-5.713,9.215,70.682,70.682,0,0,1-18.937,2.073c-25.158,0-46.629-8.847-46.629-37.23,0-15.067,6.865-22.117,16.449-31.931,8.2-8.432,14.975-15.482,18.937-16.772a63.355,63.355,0,0,1,14.837-1.382C74.152,16.607,95.9,17.99,95.9,20.938Z" transform="translate(74.858 60.34)" fill="#fff"/>
    <path id="Trazado_4223" data-name="Trazado 4223" d="M47.334,104.926c.369-2.166.6-5.253.875-7.28C49.5,86.91,49.5,76.4,49.73,65.393c0-8.34.645-16.634.645-24.927V32.632c0-3.548-.645-6.128-4.976-6.128l-6.911.783a.691.691,0,0,1-.737-.645,102.987,102.987,0,0,1,5.114-9.584H59.59A27.644,27.644,0,0,0,64.2,16.69a.507.507,0,0,1,.507.507c0,.737-.645,3.963-.737,5.114a93.351,93.351,0,0,0-.415,10.828v31.47s.783,33.359.783,35.156c-9.215,2.672-13.823,4.1-16.634,5.114Z" transform="translate(136.188 60.211)" fill="#fff"/>
    <path id="Trazado_4224" data-name="Trazado 4224" d="M45.82,68.823c0-15.343,18.431-41.192,31.7-47.965A44.832,44.832,0,0,1,97.333,16.25a38.105,38.105,0,0,1,37.921,39.4c0,17.878-12.118,33.083-26.033,43.035A42.3,42.3,0,0,1,88.256,107.9c-1.659,0-3.364.276-5.022.276C63.053,108.172,45.82,88.5,45.82,68.823Zm65.7,20a24.973,24.973,0,0,0,10.183-22.762c0-17.509-10.828-36.861-30.272-36.861C75.217,29.2,57.2,41.085,57.2,58.732A39.948,39.948,0,0,0,72.775,89.7a27.646,27.646,0,0,0,18.43,5.99,33.037,33.037,0,0,0,20.32-6.865Z" transform="translate(165.301 58.624)" fill="#fff"/>
    <path id="Trazado_4225" data-name="Trazado 4225" d="M16.532,2.278c2.12,3.732,18.753,34.465,23.361,38.658A196.381,196.381,0,0,0,50.813,23.98c3.732-6.128,7.326-12.164,10.551-18.431l1.428-2.811c1.06,0,9.722-1.428,9.906-1.428s0,.415,0,.737V57.892c-1.336.415-9.86,3.41-10.045,3.41s-.323-.369-.323-.6c0-1.889.645-5.713.737-7.925.461-7.188.691-14.238.691-21.425a132.284,132.284,0,0,0-.691-15.389A240.792,240.792,0,0,0,46.988,42.087c-2.488,4.377-4.608,7.787-6.22,11.289a36.861,36.861,0,0,1-2.995,5.529c-.6,0-1.8-2.9-2.12-3.5L27.268,39.83a222.911,222.911,0,0,0-16.081-26.4c-1.2,15.251-1.567,30.595-2.3,46.076a60.453,60.453,0,0,0-7.234,1.29H1.235c-.276,0-.415,0-.415-.323a2.534,2.534,0,0,1,.369-.691,32.852,32.852,0,0,0,1.7-7.741c.6-3.87,1.014-7.6,1.474-11.427C5.289,31.4,5.888,19.28,5.888,10.2a8.248,8.248,0,0,0-2.811-7,2.488,2.488,0,0,1-.691-.691c0-.323.691-.323.875-.323Z" transform="translate(2.958 4.726)" fill="#f8b133"/>
    <path id="Trazado_4226" data-name="Trazado 4226" d="M18,52.158a33.221,33.221,0,0,1,6.911-14.145A6.036,6.036,0,0,1,29.8,36.861,36.124,36.124,0,0,1,39.84,38.428c.23-2.765.415-5.391.415-8.109,0-3.686-3.225-3.686-6.128-3.686s-9.538.276-11.565,3.594H19.751c.323-2.811.507-5.713.645-8.616A26.816,26.816,0,0,1,32.7,19.4c.922,0,6.22,0,6.819.875a48.368,48.368,0,0,0,3.317,4.055c1.106,1.2,5.529,4.608,5.529,6.5s-.323,3.916-.507,5.9a118.782,118.782,0,0,0-.415,12.164c0,2.9,0,8.524,4.055,8.524.691,0,1.2.23,1.2,1.014s-7.326,6.635-7.741,6.635-4.608-6.727-5.391-8.017c-3.548,2.765-7.234,5.483-10.782,8.294C23.667,62.479,18,58.563,18,52.158Zm10.321-8.432c-2.027,0-4.608,0-4.608,2.626a10.551,10.551,0,0,0,8.708,9.215,10.6,10.6,0,0,0,4.608-2.442,6.727,6.727,0,0,0,2.4-6.22,5.854,5.854,0,0,0,0-1.29,30.825,30.825,0,0,0-10.92-1.889Zm.691-28.8a1.2,1.2,0,0,1-.922-1.106,1.751,1.751,0,0,1,.415-1.106C30.395,10.736,39.425,0,40.163,0a6.359,6.359,0,0,1,4.285,4.608A68.285,68.285,0,0,1,29.2,14.929Z" transform="translate(64.937)" fill="#f8b133"/>
    <path id="Trazado_4227" data-name="Trazado 4227" d="M28.671,47.428c-.507-.23-2.811-1.2-2.811-1.935a36.861,36.861,0,0,1,3.087-7.418,23.039,23.039,0,0,0,3.64,2.3,32.714,32.714,0,0,0,10.6,2.534c2.442,0,8.017-1.2,8.017-4.608,0-8.017-23.96-6.727-23.96-15.666A76.3,76.3,0,0,1,37.886,5.084,17.878,17.878,0,0,1,43.922,4.07C46,4.07,56.731,5.084,56.731,7.019c0,1.014-1.474,5.9-1.8,7.326a1.1,1.1,0,0,1-1.014,1.106,1.152,1.152,0,0,1-.6,0,22.715,22.715,0,0,0-3.5-1.29,35.433,35.433,0,0,0-9.86-1.428c-2.3,0-5.3.922-5.3,3.732,0,5.253,14.883,5.713,20.78,11.1a6.681,6.681,0,0,1,2.9,4.608c0,3.087-2.811,5.9-4.331,8.248C49.635,47.2,49.635,50.515,41.3,50.515a31.194,31.194,0,0,1-12.625-3.087Z" transform="translate(93.293 14.683)" fill="#f8b133"/>
    <path id="Trazado_4228" data-name="Trazado 4228" d="M68.773,157.7c-1.659,0-1.981-1.106-1.981-2.258a69.667,69.667,0,0,1,2.3-19.26c1.014-3.179,13.178-7.142,17.463-8.847a187.2,187.2,0,0,1,21.425-7.372,1.751,1.751,0,0,1,1.981,1.889c-1.336,2.857-3.963,21.886-5.944,22.67-11.2,4.147-22.393,8.478-33.267,12.994Zm10.551-43.035c.323-10.551.645-21.1.645-31.7a522.273,522.273,0,0,0-5.575-67.548C77.988,13.9,111.946,2.61,114.573,2.61s2.3.922,2.3,1.889c0,4.884-3.271,14.7-3.963,20.181-3.963,27.646-7.879,55.292-11.2,83.214Z" transform="translate(240.906 9.416)" fill="#fff"/>
  </g>
</svg>
